<?xml version="1.0" encoding="UTF-8" standalone="no"?>
<!-- Uploaded to: SVG Repo, www.svgrepo.com, Generator: SVG Repo Mixer Tools -->

<svg
   width="800px"
   height="800px"
   viewBox="0 0 24 24"
   fill="none"
   version="1.1"
   id="svg64"
   sodipodi:docname="restart.svg"
   inkscape:version="1.2.2 (b0a8486541, 2022-12-01)"
   xmlns:inkscape="http://www.inkscape.org/namespaces/inkscape"
   xmlns:sodipodi="http://sodipodi.sourceforge.net/DTD/sodipodi-0.dtd"
   xmlns="http://www.w3.org/2000/svg"
   xmlns:svg="http://www.w3.org/2000/svg">
  <defs
     id="defs68" />
  <sodipodi:namedview
     id="namedview66"
     pagecolor="#ffffff"
     bordercolor="#000000"
     borderopacity="0.25"
     inkscape:showpageshadow="2"
     inkscape:pageopacity="0.0"
     inkscape:pagecheckerboard="0"
     inkscape:deskcolor="#d1d1d1"
     showgrid="false"
     inkscape:zoom="0.295"
     inkscape:cx="-276.27119"
     inkscape:cy="401.69492"
     inkscape:window-width="1854"
     inkscape:window-height="1011"
     inkscape:window-x="0"
     inkscape:window-y="0"
     inkscape:window-maximized="1"
     inkscape:current-layer="svg64" />
  <path
     d="M12 2.99988C16.9706 2.99988 21 7.02931 21 11.9999C21 16.9704 16.9706 20.9999 12 20.9999C7.02944 20.9999 3 16.9704 3 11.9999C3 9.17261 4.30367 6.64983 6.34267 4.99988"
     stroke="#292929"
     stroke-linecap="round"
     stroke-linejoin="round"
     stroke-width="2"
     id="path60" />
  <path
     d="M3 4.49988H7V8.49988"
     stroke="#292929"
     stroke-linecap="round"
     stroke-linejoin="round"
     stroke-width="2"
     id="path62" />
  <path
     style="fill:#1e4692;stroke-width:3.38983;fill-opacity:1"
     d="M 355.9322,732.22769 C 229.22027,713.69559 125.96513,628.78898 83.753327,508.41529 69.139275,466.74098 64.805366,434.4519 67.025743,383.78917 69.904608,318.10159 88.085506,263.77969 125.24703,209.83237 l 18.44841,-26.78152 h -30.02096 c -29.361535,0 -30.213732,-0.22909 -38.796875,-10.42958 -15.072399,-17.91253 -10.155379,-43.0209 10.492763,-53.58046 9.253218,-4.73214 149.434572,-5.20728 161.689292,-0.54805 18.84853,7.1662 20.67162,15.23071 21.45553,94.90956 0.81996,83.34172 -0.97604,91.98487 -20.8384,100.28389 -17.11482,7.15103 -24.14099,6.20418 -36.60636,-4.93309 -10.84014,-9.6852 -11.10569,-10.60674 -12.76535,-44.2998 l -1.69491,-34.40886 -12.28776,16.33371 C 153.45688,287.40664 135.79345,343.41951 135.87838,400 c 0.068,45.32505 7.51736,77.68559 26.92141,116.94915 34.64521,70.1036 93.61104,118.58499 169.4036,139.28275 32.86119,8.97386 102.22759,9.05068 135.59322,0.15017 126.73007,-33.80634 210.86315,-157.21621 195.1701,-286.28349 -5.5942,-46.00936 -25.61529,-97.60752 -49.02559,-126.34824 -3.93881,-4.83566 -11.53187,-14.37786 -16.87346,-21.20488 -11.1898,-14.30158 -44.34,-41.20967 -66.55919,-54.02631 -26.76762,-15.4403 -75.24579,-29.585 -112.48206,-32.81939 -29.96926,-2.60318 -35.38263,-4.05752 -42.83232,-11.50721 -11.568,-11.568 -12.02338,-35.780702 -0.89572,-47.625556 10.49838,-11.175009 25.68722,-13.223759 64.07824,-8.6432 136.54441,16.291573 243.08461,107.450636 284.23214,243.197796 8.04708,26.54757 8.9901,35.25021 9.26362,85.48858 0.26305,48.3282 -0.76562,59.98552 -7.56722,85.74688 -38.03288,144.05139 -163.40776,245.464 -310.74583,251.35454 -20.50847,0.81994 -46.44068,0.15221 -57.62712,-1.4839 z"
     id="path1646"
     transform="scale(0.03)" />
</svg>
